<svg height="512" width="512" xmlns="http://www.w3.org/2000/svg"><path d="M385.708 472.847L254.742 310.082 380.32 188.548c2.334-2.426 1.526-9.433-4.761-9.433h-62.16c-3.145 0-6.288 1.618-9.433 4.761L185.128 303.973V36.369c0-4.491-2.247-6.737-6.738-6.737h-46.618c-4.492 0-6.737 2.246-6.737 6.737V475.54c0 4.491 2.246 6.738 6.737 6.738h46.618c4.491 0 6.738-2.247 6.738-6.738v-97.91l27.666-26.317 99.257 126.294c2.695 3.145 5.839 4.762 9.432 4.762h60.095c3.143 0 4.939-.899 5.389-2.696l-1.259-6.826z" fill="#20beff"/><path d="M381.577 492.368h-60.095c-4.539 0-11.177-1.432-17.024-8.254a10.686 10.686 0 01-.27-.328l-92.466-117.653-16.595 15.786v93.621c0 10.012-6.727 16.738-16.738 16.738h-46.618c-10.011 0-16.737-6.727-16.737-16.738V36.369c0-10.011 6.726-16.737 16.737-16.737h46.618c10.012 0 16.738 6.726 16.738 16.737v243.28l101.729-102.807c5.143-5.14 10.694-7.727 16.541-7.727h62.16c6.554 0 12.166 3.622 14.647 9.453 2.493 5.858 1.416 12.656-2.681 16.914a9.98 9.98 0 01-.252.252L268.253 310.922l125.246 155.656a10.004 10.004 0 012.043 4.456l1.258 6.825a9.981 9.981 0 01-.133 4.238c-.603 2.41-3.471 10.271-15.09 10.271zm-61.817-21.137c1.01 1.137 1.506 1.137 1.723 1.137h51.005L246.951 316.351a10 10 0 01.836-13.454l117.566-113.781h-51.872c-.278.084-1.15.538-2.446 1.833L192.236 311.007a10.002 10.002 0 01-17.108-7.034V39.632h-40.094v432.646h40.094V377.63c0-2.739 1.124-5.357 3.108-7.245l27.666-26.317a9.97 9.97 0 017.613-2.729 9.998 9.998 0 017.142 3.794l99.103 126.098z" fill="#188fbf"/></svg>