<svg viewBox="0 0 24 24" xmlns="http://www.w3.org/2000/svg"><path d="M4.54 9.46L2.19 7.1a6.93 6.93 0 000 9.79l2.36-2.36a3.59 3.59 0 01-.01-5.07z" fill="#ef9008"/><path d="M2.19 7.1l2.35 2.36a3.59 3.59 0 015.08 0l1.71-2.93-.1-.08a6.93 6.93 0 00-9.04.65zM11.34 17.46l-1.72-2.92a3.59 3.59 0 01-5.08 0L2.19 16.9a6.93 6.93 0 009 .65l.11-.09M12 7.1a6.93 6.93 0 000 9.79l2.36-2.36a3.59 3.59 0 115.08-5.08l2.37-2.35a6.93 6.93 0 00-9.81 0z" fill="#fdba18"/><path d="M21.81 7.1l-2.35 2.36a3.59 3.59 0 01-5.08 5.08L12 16.9a6.93 6.93 0 009.81-9.8z" fill="#ef9008"/></svg>