<svg width="58" height="48" viewBox="0 0 58 48" fill="none" xmlns="http://www.w3.org/2000/svg">
<path d="M44.8963 37.6941H36.1306L27.2211 11.6706C27.285 12.1098 27.3169 12.4549 27.3169 12.7059C27.5724 14.902 27.764 16.8941 27.8917 18.6824C28.0514 20.4392 28.1312 22.4941 28.1312 24.8471V37.6941H22V5.12941H30.622L39.6752 31.2C39.0684 27.1216 38.7651 23.2627 38.7651 19.6235V5.12941H44.8963V37.6941Z" fill="black"/>
<path d="M57.3294 35.7647C57.3294 38.0863 56.9462 40.0157 56.1798 41.5529C55.4453 43.0902 54.4234 44.3451 53.1142 45.3176C51.8368 46.2902 50.2082 47.1843 48.2284 48L46.0249 43.2471C47.1426 42.6824 48.0208 42.1176 48.6595 41.5529C49.2981 41.0196 49.7931 40.3137 50.1444 39.4353C50.4956 38.5569 50.6713 37.4118 50.6713 36V12.7529H57.3294V35.7647ZM54.0243 0C55.1739 0 56.1159 0.360784 56.8504 1.08235C57.6168 1.80392 58 2.71373 58 3.81177C58 4.9098 57.6168 5.83529 56.8504 6.58824C56.1159 7.30981 55.1739 7.67059 54.0243 7.67059C52.8747 7.67059 51.9167 7.30981 51.1503 6.58824C50.4158 5.83529 50.0486 4.9098 50.0486 3.81177C50.0486 2.71373 50.4158 1.80392 51.1503 1.08235C51.9167 0.360784 52.8747 0 54.0243 0Z" fill="black"/>
<path d="M8.48392 15H0L8.68496 26.3232L0.064333 38H8.29896L17 26.2028L8.48392 15Z" fill="#31AFD0"/>
</svg>
