<svg width="50" height="51" viewBox="0 0 50 51" fill="none" xmlns="http://www.w3.org/2000/svg" style="background-color:#14181E">
<path d="M24.9739 8.66562L24.9739 13.8544V36.5395" stroke="#FFFFFF" stroke-width="5.57478"/>
<g opacity="0.5">
<path d="M19.3623 23.9963H9.60642C8.06699 23.9963 6.81903 25.2442 6.81903 26.7837V46.2954C6.81903 47.8348 8.06699 49.0828 9.60642 49.0828H40.2677C41.8072 49.0828 43.0551 47.8349 43.0551 46.2954V35.1458C43.0551 33.6064 41.8072 32.3585 40.2677 32.3585H37.4803C35.9409 32.3585 34.693 31.1105 34.693 29.5711V26.7837C34.693 25.2442 33.445 23.9963 31.9056 23.9963H30.5119" stroke="#FFFFFF" stroke-width="2.78739"/>
<path d="M31.9056 23.9963H33.5384C34.2776 23.9963 34.9866 24.29 35.5094 24.8127L42.2387 31.5421C42.7615 32.0648 43.0551 32.7738 43.0551 33.513V35.1459" stroke="#FFFFFF" stroke-width="2.78739"/>
<path d="M34.693 32.3585V23.9963L43.0551 32.3585H34.693Z" fill="#FFFFFF"/>
</g>
<circle cx="24.9371" cy="36.5395" r="2.78739" fill="#FFFFFF"/>
<path d="M24.9371 1.69714L33.2993 15.6341H16.5749L24.9371 1.69714Z" fill="#FFFFFF"/>
</svg>
