<svg width="50" height="50" viewBox="0 0 50 50" fill="none" xmlns="http://www.w3.org/2000/svg">
<path d="M22.6662 34.6126H10.0499L7.65135 41.8083H0L13.0001 6.8855H19.668L32.7401 41.8083H25.0887L22.6662 34.6126ZM11.9927 28.7842H20.7234L16.3341 15.7121L11.9927 28.7842Z" fill="#0A0000"/>
<path opacity="0.5" d="M42.9963 41.8083C42.6765 41.1846 42.4446 40.4091 42.3007 39.4817C40.6217 41.3525 38.439 42.288 35.7527 42.288C33.2102 42.288 31.0995 41.5524 29.4205 40.0813C27.7575 38.6102 26.926 36.7553 26.926 34.5167C26.926 31.7664 27.9414 29.6557 29.9722 28.1845C32.0189 26.7134 34.9691 25.9699 38.8228 25.9539H42.0129V24.4668C42.0129 23.2675 41.701 22.3081 41.0774 21.5886C40.4698 20.869 39.5024 20.5092 38.1752 20.5092C37.0079 20.5092 36.0885 20.789 35.4169 21.3487C34.7613 21.9084 34.4335 22.6759 34.4335 23.6513H27.5017C27.5017 22.1482 27.9654 20.7571 28.8928 19.4778C29.8203 18.1986 31.1315 17.1992 32.8264 16.4797C34.5214 15.7441 36.4243 15.3763 38.535 15.3763C41.733 15.3763 44.2675 16.1838 46.1384 17.7989C48.0252 19.3979 48.9686 21.6525 48.9686 24.5627V35.8119C48.9846 38.2744 49.3284 40.1373 50 41.4005V41.8083H42.9963ZM37.2637 36.9872C38.2871 36.9872 39.2306 36.7633 40.094 36.3156C40.9575 35.8519 41.5971 35.2363 42.0129 34.4687V30.0074H39.4224C35.9525 30.0074 34.1057 31.2067 33.8818 33.6053L33.8578 34.013C33.8578 34.8765 34.1616 35.588 34.7693 36.1477C35.3769 36.7074 36.2084 36.9872 37.2637 36.9872Z" fill="#0A0000"/>
</svg>
