<svg width="50" height="50" viewBox="0 0 50 50" fill="none" xmlns="http://www.w3.org/2000/svg" style="background-color:#14181E">
<path fill-rule="evenodd" clip-rule="evenodd" d="M49.9481 17.2054L49.9481 17.2053C49.9036 17.1532 49.8505 17.0911 49.8035 17.0801C49.2769 16.9568 48.391 17.3112 47.6572 17.6048L47.6571 17.6048C47.3517 17.727 47.0726 17.8386 46.8567 17.9009C46.7485 17.9321 46.6082 17.9867 46.4556 18.0461C46.1217 18.176 45.7285 18.3289 45.4815 18.3113C45.0708 18.2822 44.1313 17.9922 44.008 17.6273C43.9844 17.5574 44.0691 17.4642 44.1539 17.3711C44.2343 17.2827 44.3148 17.1943 44.3027 17.1257C44.2549 16.853 43.8388 16.5814 43.462 16.3354C43.2446 16.1934 43.0404 16.0601 42.9275 15.94C42.8828 15.8925 42.8311 15.815 42.7772 15.7345L42.7772 15.7344L42.7771 15.7343C42.706 15.6278 42.6312 15.5158 42.5642 15.4602C42.437 15.3547 42.2018 15.2559 41.9659 15.1569C41.7253 15.056 41.484 14.9547 41.3558 14.8456C40.801 14.3734 39.9659 13.1685 39.6859 12.5199C39.5891 12.2955 39.511 11.9503 39.4285 11.586C39.2956 10.999 39.1515 10.3626 38.9001 10.103C38.4085 9.59529 38.2135 9.32815 38.0253 9.07032C37.9967 9.03112 37.9683 8.99213 37.9389 8.95254C37.8265 8.80071 37.6562 8.59095 37.4782 8.37178L37.4782 8.3717L37.4781 8.37165L37.478 8.37151L37.4778 8.37122L37.4776 8.37105C37.2365 8.07409 36.9815 7.75994 36.8373 7.54923C36.736 7.40115 36.5525 7.19703 36.3478 6.96937C35.7786 6.33631 35.0459 5.52129 35.4621 5.22352C35.5962 5.12758 35.7664 5.37997 35.9408 5.63847C36.1152 5.89713 36.2937 6.1619 36.4444 6.08996C36.9957 5.8267 36.5728 4.18274 36.1006 3.80985C35.7962 3.56952 35.0663 3.68509 34.4754 3.77865C34.2469 3.81483 34.0392 3.84771 33.885 3.85545C33.711 3.86418 33.4683 3.88931 33.2117 3.91589C32.8247 3.95599 32.4059 3.99937 32.143 3.99468C31.622 3.98539 30.7205 3.85924 30.009 3.7597C29.7672 3.72586 29.5474 3.6951 29.3719 3.67305C29.1888 3.65004 28.9419 3.58355 28.673 3.51114C28.0749 3.35009 27.3682 3.15979 27.0144 3.35383C26.8354 3.452 26.7802 3.76624 26.7249 4.08055C26.6686 4.4008 26.6122 4.72113 26.425 4.8131C26.0118 5.01617 25.0202 4.60707 24.6078 4.40268C24.4366 4.31783 24.2388 4.11668 24.0393 3.91382C23.8279 3.69879 23.6146 3.48184 23.429 3.39943C23.214 3.3039 22.8344 3.27614 22.4767 3.24997C22.2195 3.23116 21.9737 3.21317 21.8083 3.17142C21.7132 3.14743 21.5862 3.12353 21.444 3.09677C20.918 2.99779 20.184 2.85966 20.0892 2.53299C20.0403 2.36414 20.2828 2.17511 20.5262 1.98547C20.7462 1.81404 20.9669 1.64211 20.9733 1.48414C20.9768 1.39782 20.8747 1.29614 20.7735 1.19544C20.6822 1.10446 20.5916 1.01427 20.5804 0.936916C20.5687 0.855551 20.6385 0.738922 20.7089 0.621227C20.7931 0.480473 20.8783 0.338193 20.826 0.252883C20.683 0.0196736 19.9765 -0.0407949 19.6963 0.0248722C19.6406 0.0379395 19.5807 0.100623 19.5211 0.163063C19.4634 0.223519 19.4059 0.283747 19.3525 0.298485C19.1403 0.357106 18.7849 0.281808 18.4593 0.212833C18.2565 0.16988 18.0653 0.129379 17.9275 0.125197C17.3975 0.109099 16.3312 0.158167 15.8108 0.252883C15.4454 0.319393 14.9507 0.515137 14.4335 0.719798C13.712 1.00529 12.9467 1.30813 12.4273 1.30173C12.1631 1.29848 11.8045 1.12221 11.4392 0.942697C11.0097 0.731613 10.5711 0.516057 10.2663 0.572098C9.83936 0.65059 9.30852 1.22726 8.91382 1.65604L8.91381 1.65605C8.80242 1.77706 8.70187 1.88629 8.61757 1.96921C8.33153 2.25055 7.94123 2.71731 7.5579 3.17574C7.21246 3.58884 6.87268 3.99519 6.61993 4.25301C6.32161 4.55732 5.68626 5.13277 5.35484 5.40593C5.10872 5.60876 4.73511 5.86857 4.34288 6.14131C3.78803 6.52714 3.19594 6.93888 2.87485 7.25186C2.30478 7.8077 1.17146 9.00271 0.934581 9.73813C0.853754 9.98898 0.910233 10.4162 0.96151 10.804C0.992461 11.0381 1.02152 11.2579 1.01734 11.4159C1.00879 11.7388 0.937086 12.3828 0.885466 12.7023C0.758947 13.485 0.409399 15.0365 0.197863 15.8032C0.183412 15.8556 0.152889 15.9248 0.120048 15.9992C0.058679 16.1383 -0.0107849 16.2957 0.00140459 16.396C0.0240617 16.5824 0.23985 16.8628 0.401131 17.0723C0.446472 17.1312 0.487505 17.1845 0.518728 17.2286C0.56052 17.2875 0.609072 17.3658 0.662761 17.4524C0.833443 17.7276 1.05604 18.0866 1.27838 18.1745C1.32355 18.1924 1.39844 18.1719 1.47344 18.1514C1.54963 18.1305 1.62593 18.1096 1.6713 18.1289C1.86107 18.2096 2.03662 18.5372 2.16588 18.7784C2.20114 18.8442 2.23295 18.9036 2.26067 18.9498C2.35019 19.0989 2.44097 19.3245 2.53719 19.5636C2.68821 19.9388 2.85261 20.3474 3.04651 20.5458C3.17776 20.6802 3.46256 20.8095 3.72528 20.9288C3.89591 21.0063 4.05722 21.0795 4.16111 21.1472C4.31494 21.2473 4.50447 21.4199 4.70546 21.603L4.70549 21.603C5.02423 21.8933 5.37178 22.2098 5.65144 22.3053C6.13993 22.4721 7.0094 22.4163 7.77693 22.3671H7.77694H7.77697C8.18797 22.3407 8.56973 22.3162 8.84811 22.3288C8.98442 22.335 9.17472 22.3564 9.37575 22.379C9.67631 22.4128 10.0009 22.4493 10.2048 22.4416C10.4633 22.4318 10.8811 22.3527 11.2518 22.2825L11.2519 22.2825C11.4568 22.2437 11.6474 22.2077 11.7888 22.1875C12.0703 22.1474 12.4346 22.0678 12.8344 21.9805L12.8345 21.9805L12.8345 21.9805L12.8345 21.9805C13.8536 21.758 15.1027 21.4853 15.795 21.6875C16.0012 21.7478 16.2164 21.9893 16.4317 22.2309C16.6471 22.4727 16.8625 22.7145 17.0689 22.7746C17.244 22.8256 17.5219 22.7571 17.797 22.6892C18.0511 22.6266 18.3027 22.5645 18.4684 22.5979C18.7381 22.6524 19.2754 22.9173 19.4016 23.1452C19.5358 23.3874 19.4484 23.8582 19.3744 24.2564C19.3412 24.4355 19.3107 24.5998 19.3043 24.7222C19.3009 24.786 19.3005 24.8708 19.3001 24.9629V24.9629V24.963V24.963V24.9631V24.9631V24.9632V24.9632V24.9633V24.9633V24.9634V24.9634V24.9635V24.9635V24.9636V24.9636V24.9637V24.9637V24.9638V24.9639V24.9639V24.964V24.964V24.9641V24.9641C19.2992 25.1566 19.2981 25.3808 19.2699 25.5115C19.2437 25.6332 19.1558 25.7951 19.0638 25.9648L19.0637 25.9648C18.9293 26.2126 18.7859 26.477 18.8123 26.6565C18.8867 27.1628 19.5014 27.7956 20.0602 28.3708C20.3943 28.7147 20.7084 29.0381 20.8751 29.3015C20.9515 29.4222 21.0511 29.5673 21.1616 29.7282C21.6266 30.4056 22.2832 31.362 22.2012 31.9464C22.1948 31.992 22.1354 32.0403 22.0764 32.0884C22.0212 32.1334 21.9663 32.1781 21.9556 32.22C21.9039 32.4233 22.0283 32.7311 22.151 33.035C22.2623 33.3103 22.3722 33.5824 22.3485 33.7705C22.3107 34.0709 22.0402 34.466 21.7723 34.8574L21.7722 34.8574C21.5208 35.2246 21.2716 35.5886 21.2189 35.8682C21.0377 36.8293 21.3529 38.8267 21.71 39.7444C21.8106 40.0029 22.0831 40.336 22.3545 40.668L22.3546 40.6681C22.6202 40.9929 22.885 41.3167 22.987 41.5684C23.1094 41.8703 23.1523 42.3643 23.1945 42.8502C23.2327 43.29 23.2703 43.7232 23.3658 44.0015C23.4614 44.28 23.7102 44.6905 23.9392 45.0683C24.088 45.3138 24.2284 45.5454 24.3131 45.7182C24.4014 45.8984 24.5498 46.1303 24.7137 46.3864C25.1599 47.0835 25.7204 47.9591 25.4918 48.4544C25.4792 48.4818 25.4235 48.4898 25.3683 48.4978C25.3099 48.5062 25.2521 48.5145 25.2463 48.5456C25.1457 49.083 26.4298 49.885 27.0059 49.992C27.2705 50.0412 27.6971 49.8536 28.0591 49.6945C28.2239 49.622 28.3753 49.5555 28.492 49.5198C28.8149 49.421 29.2543 49.3029 29.7289 49.1754L29.7301 49.1751L29.7306 49.175C30.6385 48.931 31.6748 48.6527 32.2697 48.4088C32.5163 48.3077 33.0001 48.0722 33.2028 47.9072C33.4253 47.726 33.7211 47.3329 33.9579 47.0182L33.9579 47.0181C34.0434 46.9045 34.1212 46.8011 34.1851 46.7215C34.3577 46.5067 34.592 46.1992 34.8391 45.8748L34.8394 45.8744L34.8394 45.8743L34.84 45.8736L34.8402 45.8733L34.8408 45.8725L34.8409 45.8724L34.8414 45.8718C35.2034 45.3966 35.5924 44.8858 35.855 44.5782C36.0066 44.4007 36.2627 44.1323 36.5033 43.8802C36.6758 43.6994 36.8404 43.5269 36.9528 43.4023C37.0145 43.3338 37.1008 43.2496 37.1955 43.1571L37.1957 43.157C37.4402 42.9183 37.7408 42.625 37.8196 42.4062C37.882 42.2328 37.8426 41.948 37.8043 41.6714C37.7724 41.4412 37.7413 41.2166 37.7705 41.0669C37.8633 40.5898 38.2455 39.6564 38.5668 39.2743C38.8503 38.9371 39.5916 38.5034 40.0748 38.2207L40.0749 38.2206L40.075 38.2205L40.0751 38.2205L40.0756 38.2202C40.149 38.1773 40.2164 38.1378 40.2753 38.1027C40.3982 38.0295 40.5862 37.9546 40.7875 37.8744C41.147 37.731 41.5492 37.5707 41.6996 37.3731C41.9688 37.0196 42.0187 36.2155 42.0554 35.6242C42.0651 35.4668 42.0739 35.3244 42.0857 35.2097C42.1423 34.6593 42.2219 33.5474 42.1479 32.9988C42.1068 32.6947 41.9257 32.2807 41.7357 31.8464L41.7357 31.8464C41.4551 31.2051 41.1551 30.5193 41.2576 30.0768C41.5574 28.7829 43.3693 27.1665 44.8725 25.8255C45.5014 25.2645 46.0762 24.7517 46.4637 24.3309C46.6697 24.1072 46.9599 23.8244 47.2754 23.5169L47.2754 23.5169C47.9475 22.8619 48.7345 22.0949 49.0668 21.5492C49.3944 21.0114 49.7671 19.806 49.8886 19.1985C49.9551 18.866 49.9695 18.2909 49.9816 17.8091C49.9868 17.6002 49.9916 17.4089 50 17.2625C49.9852 17.2487 49.9676 17.2281 49.9483 17.2056L49.9482 17.2055L49.9481 17.2054ZM48.7789 36.2465V36.2463C48.7578 35.8002 48.7328 35.2716 48.4797 35.0833C48.404 35.027 48.173 35.0427 48.0856 35.0833C47.9264 35.1574 47.7853 35.3871 47.6533 35.6017L47.6533 35.6018C47.5642 35.7469 47.4792 35.8851 47.3958 35.9638C47.1122 36.2311 46.6046 36.516 46.0725 36.8147L46.0725 36.8147C45.298 37.2494 44.4715 37.7133 44.2078 38.1948C44.1099 38.3736 44.1467 38.6927 44.1816 38.9957C44.2072 39.2172 44.2317 39.4302 44.2019 39.5733C44.1634 39.7576 44.0311 40.0097 43.8962 40.2668C43.7418 40.5612 43.5839 40.8622 43.5592 41.0757C43.4645 41.8948 43.3853 43.8603 44.144 44.3277C44.4443 44.5127 45.2842 44.2628 45.5728 44.0636C46.1963 43.6334 46.7041 42.3936 47.0705 41.4989L47.0705 41.4989C47.1613 41.2773 47.2434 41.0769 47.3164 40.9152C47.4511 40.6169 47.5502 40.1702 47.6562 39.6924C47.845 38.8413 48.0558 37.8912 48.529 37.5045C48.5685 37.4722 48.6554 37.4697 48.7428 37.4671C48.8409 37.4643 48.9396 37.4614 48.9724 37.4164C49.0436 37.3188 48.9624 37.1191 48.8939 36.9506C48.8635 36.8757 48.8356 36.807 48.8246 36.7561C48.7969 36.6275 48.7883 36.4451 48.7789 36.2465ZM13.1579 14.7565C13.1579 15.4357 12.5688 15.9862 11.8421 15.9862C11.1154 15.9862 10.5263 15.4357 10.5263 14.7565C10.5263 14.0774 11.1154 13.5268 11.8421 13.5268C12.5688 13.5268 13.1579 14.0774 13.1579 14.7565ZM28.9474 14.7565C29.6741 14.7565 30.2632 14.206 30.2632 13.5268C30.2632 12.8477 29.6741 12.2971 28.9474 12.2971C28.2207 12.2971 27.6316 12.8477 27.6316 13.5268C27.6316 14.206 28.2207 14.7565 28.9474 14.7565ZM32.8947 20.9051C32.8947 21.5842 32.3056 22.1348 31.5789 22.1348C30.8523 22.1348 30.2632 21.5842 30.2632 20.9051C30.2632 20.2259 30.8523 19.6754 31.5789 19.6754C32.3056 19.6754 32.8947 20.2259 32.8947 20.9051ZM36.8421 15.9862C37.5688 15.9862 38.1579 15.4357 38.1579 14.7565C38.1579 14.0774 37.5688 13.5268 36.8421 13.5268C36.1154 13.5268 35.5263 14.0774 35.5263 14.7565C35.5263 15.4357 36.1154 15.9862 36.8421 15.9862ZM26.3158 38.121C26.3158 38.8002 25.7267 39.3507 25 39.3507C24.2733 39.3507 23.6842 38.8002 23.6842 38.121C23.6842 37.4419 24.2733 36.8913 25 36.8913C25.7267 36.8913 26.3158 37.4419 26.3158 38.121ZM31.5789 35.6616C32.3056 35.6616 32.8947 35.111 32.8947 34.4319C32.8947 33.7527 32.3056 33.2021 31.5789 33.2021C30.8523 33.2021 30.2632 33.7527 30.2632 34.4319C30.2632 35.111 30.8523 35.6616 31.5789 35.6616ZM30.2632 46.729C30.2632 47.4081 29.6741 47.9587 28.9474 47.9587C28.2207 47.9587 27.6316 47.4081 27.6316 46.729C27.6316 46.0498 28.2207 45.4993 28.9474 45.4993C29.6741 45.4993 30.2632 46.0498 30.2632 46.729ZM32.8947 43.0399C33.6214 43.0399 34.2105 42.4893 34.2105 41.8102C34.2105 41.131 33.6214 40.5804 32.8947 40.5804C32.168 40.5804 31.5789 41.131 31.5789 41.8102C31.5789 42.4893 32.168 43.0399 32.8947 43.0399ZM35.5263 29.513C35.5263 30.1922 34.9372 30.7427 34.2105 30.7427C33.4838 30.7427 32.8947 30.1922 32.8947 29.513C32.8947 28.8339 33.4838 28.2833 34.2105 28.2833C34.9372 28.2833 35.5263 28.8339 35.5263 29.513ZM38.1579 36.8913C38.8846 36.8913 39.4737 36.3407 39.4737 35.6616C39.4737 34.9824 38.8846 34.4319 38.1579 34.4319C37.4312 34.4319 36.8421 34.9824 36.8421 35.6616C36.8421 36.3407 37.4312 36.8913 38.1579 36.8913ZM46.0526 22.1348C46.0526 22.8139 45.4635 23.3645 44.7368 23.3645C44.0102 23.3645 43.4211 22.8139 43.4211 22.1348C43.4211 21.4556 44.0102 20.9051 44.7368 20.9051C45.4635 20.9051 46.0526 21.4556 46.0526 22.1348ZM38.1579 24.5942C38.8846 24.5942 39.4737 24.0436 39.4737 23.3645C39.4737 22.6853 38.8846 22.1348 38.1579 22.1348C37.4312 22.1348 36.8421 22.6853 36.8421 23.3645C36.8421 24.0436 37.4312 24.5942 38.1579 24.5942ZM47.3684 39.3507C47.3684 40.0299 46.7793 40.5804 46.0526 40.5804C45.3259 40.5804 44.7368 40.0299 44.7368 39.3507C44.7368 38.6716 45.3259 38.121 46.0526 38.121C46.7793 38.121 47.3684 38.6716 47.3684 39.3507ZM26.3158 30.7427C27.0425 30.7427 27.6316 30.1922 27.6316 29.513C27.6316 28.8339 27.0425 28.2833 26.3158 28.2833C25.5891 28.2833 25 28.8339 25 29.513C25 30.1922 25.5891 30.7427 26.3158 30.7427ZM34.2105 7.37826C34.2105 8.05741 33.6214 8.60797 32.8947 8.60797C32.168 8.60797 31.5789 8.05741 31.5789 7.37826C31.5789 6.69911 32.168 6.14855 32.8947 6.14855C33.6214 6.14855 34.2105 6.69911 34.2105 7.37826ZM6.57895 11.0674C7.30564 11.0674 7.89474 10.5168 7.89474 9.83767C7.89474 9.15852 7.30564 8.60796 6.57895 8.60796C5.85226 8.60796 5.26316 9.15852 5.26316 9.83767C5.26316 10.5168 5.85226 11.0674 6.57895 11.0674ZM7.89474 19.6753C7.89474 20.3545 7.30564 20.9051 6.57895 20.9051C5.85226 20.9051 5.26316 20.3545 5.26316 19.6753C5.26316 18.9962 5.85226 18.4456 6.57895 18.4456C7.30564 18.4456 7.89474 18.9962 7.89474 19.6753ZM18.4211 19.6754C19.1477 19.6754 19.7368 19.1248 19.7368 18.4457C19.7368 17.7665 19.1477 17.2159 18.4211 17.2159C17.6944 17.2159 17.1053 17.7665 17.1053 18.4457C17.1053 19.1248 17.6944 19.6754 18.4211 19.6754ZM27.6316 7.37826C27.6316 8.05741 27.0425 8.60797 26.3158 8.60797C25.5891 8.60797 25 8.05741 25 7.37826C25 6.69911 25.5891 6.14855 26.3158 6.14855C27.0425 6.14855 27.6316 6.69911 27.6316 7.37826ZM10.5263 4.91883C11.253 4.91883 11.8421 4.36827 11.8421 3.68912C11.8421 3.00997 11.253 2.45941 10.5263 2.45941C9.79963 2.45941 9.21053 3.00997 9.21053 3.68912C9.21053 4.36827 9.79963 4.91883 10.5263 4.91883ZM19.7368 4.91884C19.7368 5.59799 19.1477 6.14855 18.4211 6.14855C17.6944 6.14855 17.1053 5.59799 17.1053 4.91884C17.1053 4.23969 17.6944 3.68913 18.4211 3.68913C19.1477 3.68913 19.7368 4.23969 19.7368 4.91884ZM21.0526 13.5268C21.7793 13.5268 22.3684 12.9763 22.3684 12.2971C22.3684 11.618 21.7793 11.0674 21.0526 11.0674C20.3259 11.0674 19.7368 11.618 19.7368 12.2971C19.7368 12.9763 20.3259 13.5268 21.0526 13.5268Z" fill="#FFFFFF"/>
<circle cx="24" cy="23" r="1" fill="#000000"/>
</svg>
