<svg width="50" height="50" viewBox="0 0 50 50" fill="none" xmlns="http://www.w3.org/2000/svg">
<circle opacity="0.5" cx="22.619" cy="16.6667" r="3.57143" fill="#0A0000"/>
<circle opacity="0.5" cx="42.2619" cy="8.92857" r="1.78571" fill="#0A0000"/>
<circle cx="46.4286" cy="39.2857" r="3.57143" fill="#0A0000"/>
<circle cx="29.1667" cy="35.119" r="1.78571" fill="#0A0000"/>
<circle cx="32.7381" cy="2.97619" r="1.78571" fill="#0A0000"/>
<circle opacity="0.5" cx="25" cy="46.4286" r="3.57143" fill="#0A0000"/>
<path fill-rule="evenodd" clip-rule="evenodd" d="M14.2857 7.14286C14.2857 11.0877 11.0877 14.2857 7.14286 14.2857C3.19797 14.2857 0 11.0877 0 7.14286C0 3.19797 3.19797 0 7.14286 0C11.0877 0 14.2857 3.19797 14.2857 7.14286ZM46.4286 25C46.4286 28.9449 43.2306 32.1429 39.2857 32.1429C35.3408 32.1429 32.1429 28.9449 32.1429 25C32.1429 21.0551 35.3408 17.8571 39.2857 17.8571C43.2306 17.8571 46.4286 21.0551 46.4286 25ZM10.7143 41.6667C14.6592 41.6667 17.8571 38.4687 17.8571 34.5238C17.8571 30.5789 14.6592 27.381 10.7143 27.381C6.76939 27.381 3.57143 30.5789 3.57143 34.5238C3.57143 38.4687 6.76939 41.6667 10.7143 41.6667ZM11.9048 7.14286C11.9048 9.77278 9.77278 11.9048 7.14286 11.9048C4.51293 11.9048 2.38095 9.77278 2.38095 7.14286C2.38095 4.51293 4.51293 2.38095 7.14286 2.38095C9.77278 2.38095 11.9048 4.51293 11.9048 7.14286ZM44.0476 25C44.0476 27.6299 41.9156 29.7619 39.2857 29.7619C36.6558 29.7619 34.5238 27.6299 34.5238 25C34.5238 22.3701 36.6558 20.2381 39.2857 20.2381C41.9156 20.2381 44.0476 22.3701 44.0476 25ZM10.7143 39.2857C13.3442 39.2857 15.4762 37.1537 15.4762 34.5238C15.4762 31.8939 13.3442 29.7619 10.7143 29.7619C8.08436 29.7619 5.95238 31.8939 5.95238 34.5238C5.95238 37.1537 8.08436 39.2857 10.7143 39.2857Z" fill="#0A0000"/>
<circle cx="7.14285" cy="7.14285" r="2.38095" fill="#0A0000"/>
<circle cx="39.2857" cy="25" r="2.38139" fill="#0A0000"/>
<circle cx="10.7143" cy="34.5238" r="2.32267" fill="#0A0000"/>
</svg>
