<svg width="50" height="50" viewBox="0 0 50 50" fill="none" xmlns="http://www.w3.org/2000/svg" style="background-color:#14181E">
<path opacity="0.5" d="M18.6712 37.1513C17.6757 37.1513 17.0867 38.2658 17.6475 39.0883L24.5958 49.2791C25.0876 50.0005 26.1514 50.0005 26.6432 49.2791L33.5915 39.0883C34.1523 38.2658 33.5633 37.1513 32.5678 37.1513H18.6712Z" fill="#FFFFFF"/>
<path fill-rule="evenodd" clip-rule="evenodd" d="M10.1317 1.21941C6.02587 1.21941 2.69748 4.54781 2.69748 8.65359V30.9561C2.69748 35.0619 6.02586 38.3903 10.1316 38.3903H39.8684C43.9741 38.3903 47.3025 35.0619 47.3025 30.9561V8.65359C47.3025 4.54781 43.9742 1.21941 39.8684 1.21941H10.1317ZM12.6097 8.65359C11.2411 8.65359 10.1317 9.76305 10.1317 11.1316C10.1317 12.5002 11.2411 13.6097 12.6097 13.6097H34.9122C36.2808 13.6097 37.3903 12.5002 37.3903 11.1316C37.3903 9.76305 36.2808 8.65359 34.9122 8.65359H12.6097ZM12.6097 17.3268C11.2411 17.3268 10.1317 18.4363 10.1317 19.8049C10.1317 21.1734 11.2411 22.2829 12.6097 22.2829H37.3903C38.7589 22.2829 39.8684 21.1734 39.8684 19.8049C39.8684 18.4363 38.7589 17.3268 37.3903 17.3268H12.6097ZM12.6097 26C11.2411 26 10.1317 27.1095 10.1317 28.4781C10.1317 29.8466 11.2411 30.9561 12.6097 30.9561H29.9561C31.3247 30.9561 32.4342 29.8466 32.4342 28.4781C32.4342 27.1095 31.3247 26 29.9561 26H12.6097Z" fill="#FFFFFF"/>
<path opacity="0.25" d="M12.6097 19.8049H37.3903" stroke="#FFFFFF" stroke-width="4.95612" stroke-linecap="round"/>
<path opacity="0.5" d="M12.6097 28.4781H29.9561" stroke="#FFFFFF" stroke-width="4.95612" stroke-linecap="round"/>
</svg>
