<?xml version="1.0" encoding="utf-8"?>
<!-- Generator: Adobe Illustrator 16.0.3, SVG Export Plug-In . SVG Version: 6.00 Build 0)  -->
<!DOCTYPE svg PUBLIC "-//W3C//DTD SVG 1.1//EN" "http://www.w3.org/Graphics/SVG/1.1/DTD/svg11.dtd">
<svg version="1.1" id="Layer_1" xmlns="http://www.w3.org/2000/svg" xmlns:xlink="http://www.w3.org/1999/xlink" x="0px" y="0px"
	 width="50px" height="50px" viewBox="0 0 50 50" enable-background="new 0 0 50 50" xml:space="preserve">
<g>
	<path d="M32.346,18.243c-0.331-0.504-0.621-1.262-0.928-2.063c-0.49-1.282-1.101-2.876-1.889-3.25
		c-0.038-0.018-0.111-0.039-0.249-0.039c-0.359,0-0.867,0.143-1.357,0.28c-0.519,0.146-1.009,0.283-1.412,0.283
		c-2.363-0.138-6.672-1.569-8.634-2.306c-0.349-0.131-0.757-0.392-1.188-0.668c-0.581-0.371-1.304-0.833-1.719-0.833
		c-0.309,0.016-0.904,0.499-1.259,0.787c-0.176,0.143-0.335,0.271-0.465,0.362c-0.717,0.496-0.938,1.04-0.838,1.358
		c0.118,0.376,0.692,0.603,1.536,0.604c1.282,0.002,3.849,0.344,5.115,0.764c2.126,0.706,6.012,2.559,7.477,4.061
		c0.844,0.866,1.77,3.011,2.062,4.168c0.101,0.4,0.085,0.943,0.067,1.518c-0.014,0.467-0.028,0.95,0.034,1.219
		c0.138,0.597,0.599,1.508,1.044,2.388c0.402,0.794,0.781,1.544,0.959,2.121c0.157,0.507,0.147,1.256,0.138,2.048
		c-0.012,1.009-0.031,2.53,0.48,2.717c0.245-0.015,0.94-0.722,1.175-1.199c0.27-0.551,0.161-1.689,0.065-2.694
		c-0.095-0.995-0.185-1.935,0.01-2.608c0.466-1.619,3.073-3.973,4.373-5.138c-0.044-0.019-0.088-0.038-0.13-0.056
		C35.93,21.688,34.095,20.905,32.346,18.243z M28.653,16.359c-0.224,0.104-0.703-0.475-0.651-0.702
		c0.027-0.108,0.328-0.239,0.436-0.19C28.66,15.569,28.873,16.257,28.653,16.359z M31.917,22.862
		c-0.175,0.227-0.367,1.003-0.659,0.933c-0.531-0.13-0.052-1.537-0.139-2.044c-0.107-0.626-1.303-2.191-0.682-2.454
		c0.465-0.196,0.948,1.134,1.16,1.565c0.523,1.064,1.52,0.847,1.539,1.187C33.151,22.296,32.449,22.17,31.917,22.862z"/>
	<path d="M39.545,20.958c-0.19-0.114-0.4-0.204-0.61-0.295c-0.518-0.225-1.104-0.48-1.429-1.047
		c-0.435-0.759-1.025-1.336-1.651-1.948c-0.331-0.323-0.67-0.654-1-1.023c-0.513-0.574-0.767-1.211-1.013-1.827
		c-0.178-0.444-0.345-0.863-0.601-1.241c-0.132-0.193-0.293-0.402-0.459-0.618c-0.404-0.525-0.862-1.12-1.066-1.701
		c-0.114-0.322,0.015-0.572,0.091-0.721c0.071-0.139,0.091-0.176-0.086-0.409c-0.034-0.045-0.139-0.183-0.571-0.183
		c-0.293,0-0.639,0.063-0.942,0.118c-0.211,0.038-0.407,0.073-0.575,0.089c-0.311,0.03-0.697,0.017-1.107,0.001
		c-0.233-0.009-0.474-0.018-0.71-0.018c-0.237,0-0.962,0-1.278,0.243c-0.281,0.217-0.603,0.327-0.954,0.327
		c-0.509,0-0.991-0.23-1.417-0.433c-0.195-0.093-0.384-0.185-0.564-0.243c-0.138-0.045-0.353-0.068-0.591-0.099
		c-0.795-0.102-1.884-0.242-2.031-1.086c-0.044-0.16-0.441-0.56-0.605-0.606C19.776,8.086,19,8.052,18.179,8.016
		c-1.234-0.055-2.511-0.111-3.41-0.59c-0.378-0.201-0.725-0.298-1.06-0.298c-0.88,0-1.627,0.707-2.418,1.455
		c-0.181,0.17-0.362,0.342-0.546,0.507c-1.359,1.217-2.892,2.766-2.673,3.95c0.145,0.787,1.089,1.519,2.806,2.175
		c1.568,0.6,3.315,0.794,5.005,0.983c2.083,0.232,4.238,0.473,6.132,1.465c0.696,0.366,0.94,1.028,1.155,1.612
		c0.129,0.351,0.25,0.681,0.452,0.903l0.388,0.423c0.534,0.579,1.039,1.126,1.491,1.82c0.755,1.158,0.743,2.316,0.731,3.436
		c-0.004,0.45-0.009,0.916,0.037,1.379c0.201,2.046,0.997,3.832,1.865,5.634c0.223,0.462,0.383,0.877,0.531,1.261
		c0.389,1.007,0.646,1.672,1.734,2.413c0.096,0.065,0.208,0.147,0.332,0.237c0.491,0.36,1.29,0.925,1.713,0.836
		c0.148-0.031,0.591-0.238,1.5-1.508c0.208-0.293,0.196-0.765,0.184-1.265c-0.011-0.44-0.022-0.896,0.11-1.325
		c0.137-0.441,0.378-0.81,0.611-1.166c0.246-0.377,0.479-0.732,0.54-1.115c0.085-0.523,0.133-1.034,0.18-1.532
		c0.165-1.76,0.321-3.422,1.963-4.851c0.203-0.177,0.586-0.44,1.071-0.773c0.717-0.493,2.517-1.729,2.878-2.323
		c-0.252-0.11-0.653-0.267-0.924-0.373C40.009,21.171,39.69,21.045,39.545,20.958z M37.7,22.667l-0.101,0.09
		c-1.123,1.008-3.754,3.367-4.152,4.754c-0.146,0.508-0.062,1.402,0.021,2.269c0.112,1.181,0.229,2.401-0.155,3.185
		c-0.186,0.378-1.119,1.71-2.002,1.71c-0.091,0-0.179-0.014-0.263-0.041c-1.164-0.375-1.144-2.089-1.124-3.602
		c0.008-0.687,0.017-1.396-0.098-1.766c-0.155-0.504-0.534-1.254-0.901-1.979c-0.47-0.93-0.956-1.89-1.119-2.595
		c-0.089-0.385-0.073-0.903-0.057-1.452c0.014-0.464,0.029-0.99-0.041-1.267c-0.254-1.008-1.114-3.019-1.829-3.754
		c-1.313-1.347-5.027-3.139-7.111-3.832c-1.155-0.383-3.621-0.715-4.828-0.717c-1.823-0.002-2.291-0.872-2.407-1.246
		c-0.246-0.79,0.21-1.702,1.19-2.38c0.114-0.08,0.255-0.194,0.41-0.32c0.554-0.45,1.182-0.959,1.764-0.99c0.001,0,0.003,0,0.004,0
		c0.752,0,1.528,0.496,2.278,0.975c0.391,0.25,0.759,0.485,1.019,0.583c1.917,0.721,6.113,2.118,8.271,2.247
		c0.305-0.019,0.771-0.126,1.207-0.248c0.834-0.234,1.715-0.439,2.245-0.188c1.119,0.53,1.773,2.24,2.351,3.749
		c0.289,0.754,0.562,1.467,0.838,1.889c1.598,2.431,3.2,3.116,4.062,3.483c0.467,0.199,0.804,0.343,0.866,0.722
		C38.098,22.31,37.809,22.57,37.7,22.667z"/>
	<path d="M49.803,17.079c-0.744-0.174-2.213,0.609-2.945,0.821c-0.346,0.1-1.016,0.436-1.377,0.41
		c-0.41-0.028-1.35-0.319-1.473-0.685c-0.046-0.135,0.318-0.36,0.295-0.501c-0.076-0.43-1.066-0.857-1.375-1.187
		c-0.104-0.111-0.246-0.381-0.363-0.48c-0.256-0.213-0.955-0.398-1.207-0.614c-0.556-0.473-1.391-1.677-1.67-2.325
		c-0.252-0.586-0.379-1.996-0.787-2.417c-0.566-0.584-0.738-0.85-0.959-1.15c-0.266-0.358-0.851-1.038-1.103-1.403
		c-0.384-0.559-1.94-1.921-1.376-2.327c0.27-0.191,0.682,1.011,0.982,0.866c0.553-0.263,0.13-1.906-0.344-2.28
		c-0.421-0.333-1.662,0.019-2.215,0.046c-0.436,0.022-1.305,0.147-1.741,0.139c-0.698-0.012-2.079-0.234-2.771-0.321
		c-0.59-0.074-1.845-0.601-2.357-0.319c-0.362,0.199-0.219,1.277-0.59,1.459c-0.412,0.203-1.405-0.206-1.817-0.411
		C24.258,4.228,23.792,3.56,23.433,3.4c-0.37-0.165-1.226-0.128-1.622-0.229c-0.446-0.112-1.599-0.224-1.72-0.638
		c-0.093-0.321,0.871-0.716,0.884-1.049c0.006-0.164-0.369-0.384-0.393-0.547c-0.026-0.178,0.343-0.527,0.247-0.685
		c-0.143-0.232-0.849-0.293-1.13-0.228c-0.109,0.025-0.236,0.244-0.343,0.274c-0.345,0.095-1.067-0.162-1.425-0.173
		c-0.53-0.017-1.597,0.033-2.117,0.126c-0.875,0.16-2.491,1.06-3.383,1.049c-0.574-0.007-1.596-0.833-2.16-0.729
		C9.724,0.673,9.007,1.592,8.624,1.969C8.079,2.503,7.16,3.708,6.626,4.252C6.328,4.557,5.693,5.132,5.361,5.405
		c-0.6,0.49-1.938,1.312-2.486,1.847c-0.569,0.555-1.703,1.75-1.94,2.486c-0.13,0.402,0.094,1.257,0.083,1.677
		c-0.008,0.324-0.08,0.967-0.133,1.286c-0.125,0.783-0.475,2.335-0.687,3.101c-0.042,0.151-0.215,0.438-0.197,0.593
		c0.029,0.238,0.375,0.632,0.518,0.833c0.174,0.246,0.467,0.831,0.759,0.945c0.091,0.036,0.303-0.083,0.394-0.045
		c0.242,0.103,0.46,0.605,0.589,0.821c0.229,0.383,0.468,1.272,0.786,1.597c0.216,0.222,0.851,0.43,1.115,0.6
		c0.398,0.26,1.034,1.002,1.49,1.159c0.75,0.255,2.398-0.014,3.197,0.023c0.34,0.016,1.016,0.126,1.356,0.113
		c0.403-0.015,1.188-0.197,1.585-0.253c0.998-0.143,3.042-0.782,4.006-0.5c0.412,0.122,0.861,0.967,1.274,1.087
		c0.337,0.099,1.055-0.246,1.4-0.176c0.27,0.055,0.807,0.319,0.933,0.547c0.194,0.351-0.078,1.183-0.097,1.577
		c-0.011,0.196,0.008,0.594-0.034,0.788c-0.065,0.301-0.502,0.845-0.458,1.146c0.12,0.809,1.618,1.941,2.063,2.646
		c0.397,0.628,1.427,1.921,1.326,2.645c-0.013,0.087-0.225,0.187-0.247,0.274c-0.099,0.387,0.442,1.154,0.392,1.55
		c-0.074,0.583-1.021,1.519-1.129,2.098c-0.181,0.961,0.134,2.958,0.492,3.877c0.198,0.511,1.07,1.313,1.276,1.823
		c0.233,0.574,0.178,1.848,0.379,2.434c0.157,0.459,0.732,1.277,0.947,1.717c0.328,0.669,1.492,2.058,1.178,2.734
		c-0.026,0.058-0.233,0.031-0.246,0.092c-0.101,0.536,1.184,1.34,1.759,1.447c0.385,0.072,1.114-0.359,1.486-0.475
		c0.941-0.285,2.871-0.737,3.777-1.109c0.246-0.101,0.732-0.336,0.934-0.502c0.303-0.246,0.741-0.887,0.982-1.186
		c0.426-0.531,1.229-1.625,1.669-2.145c0.261-0.304,0.829-0.877,1.098-1.175c0.222-0.246,0.759-0.692,0.867-0.996
		c0.114-0.317-0.114-1.009-0.05-1.339c0.094-0.479,0.475-1.412,0.797-1.794c0.326-0.388,1.262-0.905,1.709-1.171
		c0.342-0.204,1.188-0.422,1.424-0.73c0.34-0.448,0.33-1.617,0.387-2.163c0.056-0.55,0.136-1.661,0.061-2.21
		c-0.101-0.754-1.063-2.18-0.889-2.922c0.424-1.835,3.893-4.318,5.205-5.745c0.645-0.7,2.114-1.98,2.603-2.782
		c0.327-0.537,0.7-1.743,0.821-2.351c0.098-0.479,0.086-1.455,0.115-1.938C49.95,17.216,49.869,17.095,49.803,17.079z M46.467,21
		c-0.241,1.082-1.077,1.799-1.887,2.493c-0.249,0.213-0.496,0.425-0.722,0.646c-0.539,0.53-1.188,1.005-1.815,1.464
		c-1.658,1.215-3.226,2.361-2.711,4.401c0.254,1.009,0.11,2.134-0.017,3.127c-0.025,0.195-0.05,0.389-0.071,0.577
		c-0.113,0.979-0.737,1.45-1.34,1.906c-0.395,0.298-0.766,0.579-1.025,1.004c-0.248,0.411-0.268,0.908-0.288,1.435
		c-0.023,0.629-0.049,1.278-0.49,1.792c-0.184,0.215-0.373,0.454-0.567,0.701c-0.459,0.581-0.935,1.183-1.45,1.616
		c-0.848,0.71-2.973,1.469-4.786,1.469c-1.224,0-2.093-0.359-2.513-1.04c-0.243-0.393-0.276-0.79-0.309-1.174
		c-0.032-0.39-0.063-0.758-0.303-1.154c-0.768-1.273-1.297-2.33-1.567-3.661c-0.126-0.626-0.387-1.188-0.664-1.785
		c-0.316-0.683-0.643-1.389-0.765-2.211c-0.103-0.693,0.101-1.344,0.298-1.972c0.211-0.675,0.412-1.313,0.168-1.886
		c-0.169-0.401-0.289-0.778-0.405-1.144c-0.198-0.621-0.385-1.207-0.794-1.89c-0.149-0.248-0.421-0.503-0.708-0.774
		c-0.6-0.565-1.279-1.205-1.082-2.061c0.442-1.924-0.933-2.504-3.082-3.169c-0.863-0.269-2.509-0.161-3.546,0.204
		c-0.46,0.163-1.227,0.057-1.943-0.07c-0.396-0.071-0.77-0.137-1.054-0.137c-2.716,0-4.056-1.331-5.476-2.74
		c-0.329-0.327-0.631-0.562-0.897-0.769C3.724,15.474,3.247,15,3.47,12.962c0.313-2.831,1.602-3.911,3.554-5.546
		c0.216-0.182,0.442-0.371,0.676-0.57c0.447-0.38,0.868-0.813,1.274-1.232c0.683-0.703,1.388-1.429,2.27-1.973
		c0.807-0.497,1.362-0.308,2.021,0.029l0.23,0.117c0.444,0.22,0.928,0.104,1.454-0.061c0.284-0.089,0.578-0.181,0.901-0.22
		c0.495-0.058,1.249-0.127,2.039-0.127c2.206,0,3.409,0.529,3.578,1.572c0.058,0.361-0.146,0.611-0.292,0.77
		c0.074,0.026,0.182,0.06,0.34,0.1c0.257,0.065,0.551,0.098,0.863,0.132c0.451,0.05,0.917,0.102,1.32,0.261
		c0.339,0.135,0.593,0.313,0.838,0.484c0.282,0.198,0.548,0.385,0.932,0.486c0.316,0.083,0.526,0.06,0.526,0.059
		c0.016-0.017,0.041-0.103,0.058-0.159c0.069-0.232,0.174-0.583,0.645-0.796c0.604-0.271,1.748-0.144,2.853,0.025
		c0.754,0.116,1.461,0.226,1.963,0.165c0.116-0.014,0.266-0.042,0.435-0.072c0.397-0.072,0.892-0.161,1.329-0.161
		c0.391,0,0.679,0.072,0.88,0.222c0.322,0.239,0.788,1.076,0.754,1.657c-0.017,0.276-0.143,0.495-0.354,0.616l-0.145,0.083
		c0.353,0.554,0.909,1.296,1.298,1.816c0.691,0.924,1.087,1.461,1.173,1.742c0.472,1.53,1.284,2.259,2.225,3.103
		c0.465,0.417,0.945,0.848,1.431,1.41c0.188,0.217,0.27,0.48,0.341,0.712c0.13,0.423,0.188,0.522,0.473,0.522
		c0.135,0,0.306-0.03,0.509-0.088c0.111-0.032,0.224-0.048,0.334-0.048c0.622,0,1.038,0.49,1.44,0.964
		c0.295,0.347,0.599,0.706,0.938,0.79c0.231,0.057,0.549-0.015,0.835-0.092c0.193-0.052,0.375-0.101,0.543-0.101
		c0.251,0,0.394,0.112,0.47,0.207C46.6,19.985,46.614,20.345,46.467,21z"/>
	<path d="M45.564,20.241c-0.338,0.091-0.774,0.185-1.142,0.095c-0.527-0.132-0.896-0.566-1.254-0.987
		c-0.378-0.445-0.719-0.846-1.141-0.725c-0.263,0.076-0.483,0.112-0.678,0.112c-0.763,0-0.938-0.573-1.056-0.953
		c-0.059-0.191-0.114-0.372-0.219-0.492c-0.461-0.533-0.926-0.951-1.376-1.355c-0.967-0.867-1.879-1.685-2.4-3.377
		c-0.06-0.194-0.625-0.95-1.079-1.557c-1.534-2.051-2.069-2.861-1.59-3.223l0.184-0.139l0.184,0.138
		c0.101,0.076,0.202,0.153,0.304,0.23c-0.025-0.383-0.364-0.947-0.509-1.054c-0.051-0.038-0.187-0.102-0.517-0.102
		c-0.383,0-0.848,0.084-1.221,0.151c-0.183,0.033-0.344,0.062-0.469,0.077c-0.568,0.069-1.327-0.044-2.13-0.167
		c-0.995-0.152-2.059-0.273-2.51-0.072c-0.216,0.098-0.254,0.224-0.311,0.414c-0.086,0.291-0.239,0.8-1.323,0.516
		c-0.489-0.129-0.813-0.356-1.127-0.577c-0.226-0.159-0.44-0.309-0.712-0.417c-0.327-0.129-0.752-0.176-1.163-0.222
		c-0.318-0.035-0.647-0.072-0.945-0.147c-0.5-0.126-0.806-0.251-0.884-0.517c-0.072-0.247,0.1-0.431,0.214-0.553
		c0.13-0.14,0.183-0.211,0.169-0.294c-0.149-0.921-1.929-1.059-2.976-1.059c-0.761,0-1.49,0.067-1.967,0.124
		c-0.268,0.032-0.521,0.111-0.791,0.196c-0.606,0.19-1.292,0.329-1.907,0.025l-0.238-0.12c-0.575-0.295-0.843-0.412-1.423-0.053
		c-0.817,0.504-1.466,1.172-2.153,1.879C8.996,6.466,8.564,6.91,8.096,7.309C7.86,7.51,7.633,7.7,7.416,7.882
		c-1.904,1.596-3.054,2.559-3.34,5.146c-0.196,1.794,0.165,2.075,0.955,2.689c0.28,0.218,0.597,0.464,0.952,0.817
		c1.606,1.595,2.744,2.563,4.984,2.563c0,0,0.001,0,0.001,0c0.4,0,0.799,0.071,1.222,0.146c0.627,0.113,1.311,0.211,1.633,0.096
		c0.708-0.25,1.639-0.398,2.491-0.398c0.558,0,1.042,0.063,1.438,0.186c1.825,0.565,4.097,1.268,3.495,3.888
		c-0.119,0.515,0.379,0.984,0.906,1.48c0.305,0.287,0.62,0.584,0.813,0.904c0.446,0.744,0.652,1.392,0.852,2.018
		c0.112,0.353,0.228,0.717,0.386,1.092c0.33,0.779,0.086,1.555-0.148,2.305c-0.185,0.589-0.359,1.146-0.277,1.7
		c0.109,0.735,0.403,1.371,0.715,2.045c0.278,0.602,0.567,1.225,0.708,1.92c0.253,1.251,0.739,2.219,1.492,3.468
		c0.313,0.518,0.354,0.996,0.389,1.418c0.028,0.341,0.054,0.636,0.219,0.904c0.384,0.621,1.297,0.751,1.995,0.751
		c1.608,0,3.646-0.7,4.395-1.326c0.468-0.394,0.923-0.97,1.363-1.527c0.2-0.253,0.395-0.499,0.583-0.72
		c0.304-0.354,0.322-0.847,0.345-1.419c0.021-0.554,0.045-1.181,0.376-1.728c0.319-0.524,0.775-0.869,1.178-1.173
		c0.547-0.414,1.02-0.771,1.103-1.49c0.021-0.19,0.047-0.387,0.072-0.585c0.126-0.985,0.257-2.005,0.03-2.901
		c-0.614-2.438,1.193-3.761,2.942-5.041c0.609-0.447,1.24-0.908,1.748-1.408c0.235-0.23,0.492-0.451,0.752-0.673
		c0.768-0.658,1.492-1.279,1.689-2.163c0.131-0.588,0.073-0.72,0.066-0.733C45.861,20.161,45.718,20.2,45.564,20.241z
		 M39.121,24.835c-0.442,0.304-0.824,0.566-0.988,0.708c-1.365,1.189-1.498,2.606-1.652,4.247c-0.049,0.519-0.099,1.05-0.188,1.594
		c-0.093,0.573-0.391,1.028-0.678,1.469c-0.208,0.317-0.404,0.618-0.503,0.937c-0.088,0.285-0.079,0.648-0.069,1.032
		c0.015,0.598,0.031,1.275-0.354,1.818c-0.831,1.159-1.485,1.753-2.061,1.871c-0.089,0.019-0.183,0.028-0.277,0.028
		c-0.766,0-1.571-0.591-2.159-1.021c-0.113-0.083-0.217-0.158-0.305-0.219c-1.326-0.901-1.673-1.8-2.074-2.84
		c-0.14-0.363-0.292-0.756-0.502-1.193c-0.905-1.878-1.736-3.746-1.952-5.94c-0.051-0.513-0.046-1.003-0.041-1.478
		c0.011-1.075,0.02-2.002-0.583-2.928c-0.411-0.63-0.89-1.149-1.397-1.7l-0.393-0.43c-0.321-0.353-0.479-0.784-0.633-1.201
		c-0.181-0.492-0.337-0.917-0.722-1.119c-1.742-0.913-3.717-1.133-5.809-1.367c-1.747-0.195-3.554-0.396-5.23-1.038
		c-2.063-0.79-3.168-1.726-3.378-2.863c-0.298-1.617,1.248-3.261,2.962-4.797c0.178-0.16,0.353-0.325,0.527-0.49
		c0.886-0.838,1.802-1.705,3.046-1.705c0.482,0,0.983,0.137,1.489,0.406C15.915,7,17.086,7.052,18.22,7.103
		c0.87,0.039,1.691,0.075,2.379,0.25c0.512,0.13,1.194,0.841,1.28,1.335c0.014,0.083,0.243,0.208,1.248,0.337
		c0.299,0.039,0.558,0.072,0.757,0.136c0.215,0.07,0.442,0.177,0.675,0.288c0.528,0.252,1.052,0.491,1.419,0.207
		c0.5-0.384,1.244-0.433,1.836-0.433c0.248,0,0.5,0.01,0.744,0.019c0.363,0.015,0.71,0.028,0.985,0.002
		c0.146-0.015,0.316-0.046,0.5-0.079c0.342-0.062,0.73-0.132,1.105-0.132c0.589,0,1.025,0.183,1.3,0.545
		c0.461,0.608,0.354,1.022,0.171,1.379c0.113,0.443,0.524,0.976,0.887,1.447c0.178,0.231,0.349,0.454,0.49,0.662
		c0.313,0.46,0.506,0.946,0.693,1.416c0.227,0.567,0.44,1.103,0.846,1.556c0.315,0.353,0.64,0.669,0.957,0.979
		c0.673,0.657,1.308,1.277,1.806,2.147c0.174,0.304,0.575,0.478,1,0.663c0.246,0.107,0.493,0.215,0.716,0.349
		c0.091,0.054,0.545,0.231,0.876,0.361c1.303,0.509,1.472,0.585,1.545,0.878C42.659,22.324,41.203,23.406,39.121,24.835z"/>
	<path d="M46.548,39.42c-0.313,0.478-0.702,1.071-0.813,1.882c-0.047,0.336-0.127,0.687-0.197,0.997
		c-0.053,0.232-0.12,0.528-0.141,0.714c0.417-0.312,0.955-1.67,1.158-2.6c0.029-0.133,0.108-0.412,0.199-0.733
		c0.103-0.36,0.255-0.896,0.331-1.229c-0.057,0.072-0.113,0.167-0.154,0.285C46.858,38.945,46.714,39.166,46.548,39.42z"/>
	<path d="M48.672,34.861c-0.076-0.057-0.305-0.041-0.393,0c-0.266,0.13-0.48,0.711-0.687,0.913
		c-0.694,0.681-2.735,1.469-3.179,2.312c-0.169,0.32,0.066,1.076-0.006,1.428c-0.083,0.409-0.594,1.143-0.639,1.555
		c-0.095,0.85-0.175,2.885,0.582,3.371c0.301,0.189,1.136-0.068,1.424-0.275c0.775-0.556,1.371-2.416,1.737-3.262
		c0.374-0.859,0.472-2.908,1.208-3.533c0.084-0.07,0.381-0.002,0.442-0.09c0.104-0.146-0.111-0.512-0.146-0.684
		C48.928,36.164,49.039,35.145,48.672,34.861z M47.235,39.816c-0.088,0.309-0.164,0.576-0.192,0.704
		c-0.006,0.029-0.688,2.941-1.738,3.055l-0.043,0.002c-0.11,0-0.208-0.047-0.275-0.131c-0.166-0.207-0.097-0.555,0.063-1.259
		c0.068-0.3,0.146-0.64,0.188-0.954c0.128-0.923,0.569-1.596,0.891-2.087c0.148-0.227,0.277-0.423,0.329-0.573
		c0.151-0.44,0.508-0.786,0.812-0.786c0.214,0,0.363,0.159,0.363,0.388C47.633,38.398,47.468,38.996,47.235,39.816z"/>
</g>
<g opacity="0.8">
	<path d="M29.297,43.631c-1.224,0-2.093-0.359-2.513-1.04c-0.243-0.393-0.276-0.79-0.309-1.174c-0.032-0.39-0.063-0.758-0.303-1.154
		c-0.768-1.273-1.297-2.33-1.567-3.661c-0.126-0.626-0.387-1.188-0.664-1.785c-0.316-0.683-0.643-1.389-0.765-2.211
		c-0.103-0.693,0.101-1.344,0.298-1.972c0.211-0.675,0.412-1.313,0.168-1.886c-0.169-0.401-0.289-0.778-0.405-1.144
		c-0.198-0.621-0.385-1.207-0.794-1.89c-0.149-0.248-0.421-0.503-0.708-0.774c-0.6-0.565-1.279-1.205-1.082-2.061
		c0.442-1.924-0.933-2.504-3.082-3.169c-0.863-0.269-2.509-0.161-3.546,0.204c-0.46,0.163-1.227,0.057-1.943-0.07
		c-0.396-0.071-0.77-0.137-1.054-0.137c-2.716,0-4.056-1.331-5.476-2.74c-0.329-0.327-0.631-0.562-0.897-0.769
		C3.724,15.474,3.247,15,3.47,12.962c0.313-2.831,1.602-3.911,3.554-5.546c0.216-0.182,0.442-0.371,0.676-0.57
		c0.447-0.38,0.868-0.813,1.274-1.232c0.683-0.703,1.388-1.429,2.27-1.973c0.807-0.497,1.362-0.308,2.021,0.029l0.23,0.117
		c0.444,0.22,0.928,0.104,1.454-0.061c0.284-0.089,0.578-0.181,0.901-0.22c0.495-0.058,1.249-0.127,2.039-0.127
		c2.206,0,3.409,0.529,3.578,1.572c0.058,0.361-0.146,0.611-0.292,0.77c0.074,0.026,0.182,0.06,0.34,0.1
		c0.257,0.065,0.551,0.098,0.863,0.132c0.451,0.05,0.917,0.102,1.32,0.261c0.339,0.135,0.593,0.313,0.838,0.484
		c0.282,0.198,0.548,0.385,0.932,0.486c0.316,0.083,0.526,0.06,0.526,0.059c0.016-0.017,0.041-0.103,0.058-0.159
		c0.069-0.232,0.174-0.583,0.645-0.796c0.604-0.271,1.748-0.144,2.853,0.025c0.754,0.116,1.461,0.226,1.963,0.165
		c0.116-0.014,0.266-0.042,0.435-0.072c0.397-0.072,0.892-0.161,1.329-0.161c0.391,0,0.679,0.072,0.88,0.222
		c0.322,0.239,0.788,1.076,0.754,1.657c-0.017,0.276-0.143,0.495-0.354,0.616l-0.145,0.083c0.353,0.554,0.909,1.296,1.298,1.816
		c0.691,0.924,1.087,1.461,1.173,1.742c0.472,1.53,1.284,2.259,2.225,3.103c0.465,0.417,0.945,0.848,1.431,1.41
		c0.188,0.217,0.27,0.48,0.341,0.712c0.13,0.423,0.188,0.522,0.473,0.522c0.135,0,0.306-0.03,0.509-0.088
		c0.111-0.032,0.224-0.048,0.334-0.048c0.622,0,1.038,0.49,1.44,0.964c0.295,0.347,0.599,0.706,0.938,0.79
		c0.231,0.057,0.549-0.015,0.835-0.092c0.193-0.052,0.375-0.101,0.543-0.101c0.251,0,0.394,0.112,0.47,0.207
		c0.181,0.226,0.195,0.586,0.048,1.242c-0.241,1.082-1.077,1.799-1.887,2.493c-0.249,0.213-0.496,0.425-0.722,0.646
		c-0.539,0.53-1.188,1.005-1.815,1.464c-1.658,1.215-3.226,2.361-2.711,4.401c0.254,1.009,0.11,2.134-0.017,3.127
		c-0.025,0.195-0.05,0.389-0.071,0.577c-0.113,0.979-0.737,1.45-1.34,1.906c-0.395,0.298-0.766,0.579-1.025,1.004
		c-0.248,0.411-0.268,0.908-0.288,1.435c-0.023,0.629-0.049,1.278-0.49,1.792c-0.184,0.215-0.373,0.454-0.567,0.701
		c-0.459,0.581-0.935,1.183-1.45,1.616C33.235,42.872,31.11,43.631,29.297,43.631z M16.314,18.943c0.558,0,1.042,0.063,1.438,0.186
		c1.825,0.565,4.097,1.268,3.495,3.888c-0.119,0.515,0.379,0.984,0.906,1.48c0.305,0.287,0.62,0.584,0.813,0.904
		c0.446,0.744,0.652,1.392,0.852,2.018c0.112,0.353,0.228,0.717,0.386,1.092c0.33,0.779,0.086,1.555-0.148,2.305
		c-0.185,0.589-0.359,1.146-0.277,1.7c0.109,0.735,0.403,1.371,0.715,2.045c0.278,0.602,0.567,1.225,0.708,1.92
		c0.253,1.251,0.739,2.219,1.492,3.468c0.313,0.518,0.354,0.996,0.389,1.418c0.028,0.341,0.054,0.636,0.219,0.904
		c0.384,0.621,1.297,0.751,1.995,0.751c1.608,0,3.646-0.7,4.395-1.326c0.468-0.394,0.923-0.97,1.363-1.527
		c0.2-0.253,0.395-0.499,0.583-0.72c0.304-0.354,0.322-0.847,0.345-1.419c0.021-0.554,0.045-1.181,0.376-1.728
		c0.319-0.524,0.775-0.869,1.178-1.173c0.547-0.414,1.02-0.771,1.103-1.49c0.021-0.19,0.047-0.387,0.072-0.585
		c0.126-0.985,0.257-2.005,0.03-2.901c-0.614-2.438,1.193-3.761,2.942-5.041c0.609-0.447,1.24-0.908,1.748-1.408
		c0.235-0.23,0.492-0.451,0.752-0.673c0.768-0.658,1.492-1.279,1.689-2.163c0.131-0.588,0.073-0.72,0.066-0.733
		c-0.078,0.026-0.222,0.065-0.375,0.106c-0.338,0.091-0.774,0.185-1.142,0.095c-0.527-0.132-0.896-0.566-1.254-0.987
		c-0.378-0.445-0.719-0.846-1.141-0.725c-0.263,0.076-0.483,0.112-0.678,0.112c-0.763,0-0.938-0.573-1.056-0.953
		c-0.059-0.191-0.114-0.372-0.219-0.492c-0.461-0.533-0.926-0.951-1.376-1.355c-0.967-0.867-1.879-1.685-2.4-3.377
		c-0.06-0.194-0.625-0.95-1.079-1.557c-1.534-2.051-2.069-2.861-1.59-3.223l0.184-0.139l0.184,0.138
		c0.101,0.076,0.202,0.153,0.304,0.23c-0.025-0.383-0.364-0.947-0.509-1.054c-0.051-0.038-0.187-0.102-0.517-0.102
		c-0.383,0-0.848,0.084-1.221,0.151c-0.183,0.033-0.344,0.062-0.469,0.077c-0.568,0.069-1.327-0.044-2.13-0.167
		c-0.995-0.152-2.059-0.273-2.51-0.072c-0.216,0.098-0.254,0.224-0.311,0.414c-0.086,0.291-0.239,0.8-1.323,0.516
		c-0.489-0.129-0.813-0.356-1.127-0.577c-0.226-0.159-0.44-0.309-0.712-0.417c-0.327-0.129-0.752-0.176-1.163-0.222
		c-0.318-0.035-0.647-0.072-0.945-0.147c-0.5-0.126-0.806-0.251-0.884-0.517c-0.072-0.247,0.1-0.431,0.214-0.553
		c0.13-0.14,0.183-0.211,0.169-0.294c-0.149-0.921-1.929-1.059-2.976-1.059c-0.761,0-1.49,0.067-1.967,0.124
		c-0.268,0.032-0.521,0.111-0.791,0.196c-0.606,0.19-1.292,0.329-1.907,0.025l-0.238-0.12c-0.575-0.295-0.843-0.412-1.423-0.053
		c-0.817,0.504-1.466,1.172-2.153,1.879C8.996,6.466,8.564,6.91,8.096,7.309C7.86,7.51,7.633,7.7,7.416,7.882
		c-1.904,1.596-3.054,2.559-3.34,5.146c-0.196,1.794,0.165,2.075,0.955,2.689c0.28,0.218,0.597,0.464,0.952,0.817
		c1.606,1.595,2.744,2.563,4.984,2.563c0,0,0.001,0,0.001,0c0.4,0,0.799,0.071,1.222,0.146c0.627,0.113,1.311,0.211,1.633,0.096
		C14.531,19.092,15.462,18.943,16.314,18.943z"/>
</g>
<g opacity="0.6">
	<path d="M32.352,38.54c-0.766,0-1.571-0.591-2.159-1.021c-0.113-0.083-0.217-0.158-0.305-0.219c-1.326-0.901-1.673-1.8-2.074-2.84
		c-0.14-0.363-0.292-0.756-0.502-1.193c-0.905-1.878-1.736-3.746-1.952-5.94c-0.051-0.513-0.046-1.003-0.041-1.478
		c0.011-1.075,0.02-2.002-0.583-2.928c-0.411-0.63-0.89-1.149-1.397-1.7l-0.393-0.43c-0.321-0.353-0.479-0.784-0.633-1.201
		c-0.181-0.492-0.337-0.917-0.722-1.119c-1.742-0.913-3.717-1.133-5.809-1.367c-1.747-0.195-3.554-0.396-5.23-1.038
		c-2.063-0.79-3.168-1.726-3.378-2.863c-0.298-1.617,1.248-3.261,2.962-4.797c0.178-0.16,0.353-0.325,0.527-0.49
		c0.886-0.838,1.802-1.705,3.046-1.705c0.482,0,0.983,0.137,1.489,0.406C15.915,7,17.086,7.052,18.22,7.103
		c0.87,0.039,1.691,0.075,2.379,0.25c0.512,0.13,1.194,0.841,1.28,1.335c0.014,0.083,0.243,0.208,1.248,0.337
		c0.299,0.039,0.558,0.072,0.757,0.136c0.215,0.07,0.442,0.177,0.675,0.288c0.528,0.252,1.052,0.491,1.419,0.207
		c0.5-0.384,1.244-0.433,1.836-0.433c0.248,0,0.5,0.01,0.744,0.019c0.363,0.015,0.71,0.028,0.985,0.002
		c0.146-0.015,0.316-0.046,0.5-0.079c0.342-0.062,0.73-0.132,1.105-0.132c0.589,0,1.025,0.183,1.3,0.545
		c0.461,0.608,0.354,1.022,0.171,1.379c0.113,0.443,0.524,0.976,0.887,1.447c0.178,0.231,0.349,0.454,0.49,0.662
		c0.313,0.46,0.506,0.946,0.693,1.416c0.227,0.567,0.44,1.103,0.846,1.556c0.315,0.353,0.64,0.669,0.957,0.979
		c0.673,0.657,1.308,1.277,1.806,2.147c0.174,0.304,0.575,0.478,1,0.663c0.246,0.107,0.493,0.215,0.716,0.349
		c0.091,0.054,0.545,0.231,0.876,0.361c1.303,0.509,1.472,0.585,1.545,0.878c0.224,0.911-1.232,1.993-3.314,3.422
		c-0.442,0.304-0.824,0.566-0.988,0.708c-1.365,1.189-1.498,2.606-1.652,4.247c-0.049,0.519-0.099,1.05-0.188,1.594
		c-0.093,0.573-0.391,1.028-0.678,1.469c-0.208,0.317-0.404,0.618-0.503,0.937c-0.088,0.285-0.079,0.648-0.069,1.032
		c0.015,0.598,0.031,1.275-0.354,1.818c-0.831,1.159-1.485,1.753-2.061,1.871C32.54,38.53,32.446,38.54,32.352,38.54z M13.709,7.127
		c-0.88,0-1.627,0.707-2.418,1.455c-0.181,0.17-0.362,0.342-0.546,0.507c-1.359,1.217-2.892,2.766-2.673,3.95
		c0.145,0.787,1.089,1.519,2.806,2.175c1.568,0.6,3.315,0.794,5.005,0.983c2.083,0.232,4.238,0.473,6.132,1.465
		c0.696,0.366,0.94,1.028,1.155,1.612c0.129,0.351,0.25,0.681,0.452,0.903l0.388,0.423c0.534,0.579,1.039,1.126,1.491,1.82
		c0.755,1.158,0.743,2.316,0.731,3.436c-0.004,0.45-0.009,0.916,0.037,1.379c0.201,2.046,0.997,3.832,1.865,5.634
		c0.223,0.462,0.383,0.877,0.531,1.261c0.389,1.007,0.646,1.672,1.734,2.413c0.096,0.065,0.208,0.147,0.332,0.237
		c0.491,0.36,1.29,0.925,1.713,0.836c0.148-0.031,0.591-0.238,1.5-1.508c0.208-0.293,0.196-0.765,0.184-1.265
		c-0.011-0.44-0.022-0.896,0.11-1.325c0.137-0.441,0.378-0.81,0.611-1.166c0.246-0.377,0.479-0.732,0.54-1.115
		c0.085-0.523,0.133-1.034,0.18-1.532c0.165-1.76,0.321-3.422,1.963-4.851c0.203-0.177,0.586-0.44,1.071-0.773
		c0.717-0.493,2.517-1.729,2.878-2.323c-0.252-0.11-0.653-0.267-0.924-0.373c-0.55-0.215-0.868-0.341-1.014-0.428
		c-0.19-0.114-0.4-0.204-0.61-0.295c-0.518-0.225-1.104-0.48-1.429-1.047c-0.435-0.759-1.025-1.336-1.651-1.948
		c-0.331-0.323-0.67-0.654-1-1.023c-0.513-0.574-0.767-1.211-1.013-1.827c-0.178-0.444-0.345-0.863-0.601-1.241
		c-0.132-0.193-0.293-0.402-0.459-0.618c-0.404-0.525-0.862-1.12-1.066-1.701c-0.114-0.322,0.015-0.572,0.091-0.721
		c0.071-0.139,0.091-0.176-0.086-0.409c-0.034-0.045-0.139-0.183-0.571-0.183c-0.293,0-0.639,0.063-0.942,0.118
		c-0.211,0.038-0.407,0.073-0.575,0.089c-0.311,0.03-0.697,0.017-1.107,0.001c-0.233-0.009-0.474-0.018-0.71-0.018
		c-0.237,0-0.962,0-1.278,0.243c-0.281,0.217-0.603,0.327-0.954,0.327c-0.509,0-0.991-0.23-1.417-0.433
		c-0.195-0.093-0.384-0.185-0.564-0.243c-0.138-0.045-0.353-0.068-0.591-0.099c-0.795-0.102-1.884-0.242-2.031-1.086
		c-0.044-0.16-0.441-0.56-0.605-0.606C19.776,8.086,19,8.052,18.179,8.016c-1.234-0.055-2.511-0.111-3.41-0.59
		C14.391,7.225,14.044,7.127,13.709,7.127z"/>
</g>
<g opacity="0.3">
	<path d="M31.312,34.675c-0.091,0-0.179-0.014-0.263-0.041c-1.164-0.375-1.144-2.089-1.124-3.602
		c0.008-0.687,0.017-1.396-0.098-1.766c-0.155-0.504-0.534-1.254-0.901-1.979c-0.47-0.93-0.956-1.89-1.119-2.595
		c-0.089-0.385-0.073-0.903-0.057-1.452c0.014-0.464,0.029-0.99-0.041-1.267c-0.254-1.008-1.114-3.019-1.829-3.754
		c-1.313-1.347-5.027-3.139-7.111-3.832c-1.155-0.383-3.621-0.715-4.828-0.717c-1.823-0.002-2.291-0.872-2.407-1.246
		c-0.246-0.79,0.21-1.702,1.19-2.38c0.114-0.08,0.255-0.194,0.41-0.32c0.554-0.45,1.182-0.959,1.764-0.99c0.001,0,0.003,0,0.004,0
		c0.752,0,1.528,0.496,2.278,0.975c0.391,0.25,0.759,0.485,1.019,0.583c1.917,0.721,6.113,2.118,8.271,2.247
		c0.305-0.019,0.771-0.126,1.207-0.248c0.834-0.234,1.715-0.439,2.245-0.188c1.119,0.53,1.773,2.24,2.351,3.749
		c0.289,0.754,0.562,1.467,0.838,1.889c1.598,2.431,3.2,3.116,4.062,3.483c0.467,0.199,0.804,0.343,0.866,0.722
		c0.061,0.363-0.229,0.623-0.337,0.721l-0.101,0.09c-1.123,1.008-3.754,3.367-4.152,4.754c-0.146,0.508-0.062,1.402,0.021,2.269
		c0.112,1.181,0.229,2.401-0.155,3.185C33.128,33.343,32.194,34.675,31.312,34.675z M14.969,9.647
		c-0.309,0.016-0.904,0.499-1.259,0.787c-0.176,0.143-0.335,0.271-0.465,0.362c-0.717,0.496-0.938,1.04-0.838,1.358
		c0.118,0.376,0.692,0.603,1.536,0.604c1.282,0.002,3.849,0.344,5.115,0.764c2.126,0.706,6.012,2.559,7.477,4.061
		c0.844,0.866,1.77,3.011,2.062,4.168c0.101,0.4,0.085,0.943,0.067,1.518c-0.014,0.467-0.028,0.95,0.034,1.219
		c0.138,0.597,0.599,1.508,1.044,2.388c0.402,0.794,0.781,1.544,0.959,2.121c0.157,0.507,0.147,1.256,0.138,2.048
		c-0.012,1.009-0.031,2.53,0.48,2.717c0.245-0.015,0.94-0.722,1.175-1.199c0.27-0.551,0.161-1.689,0.065-2.694
		c-0.095-0.995-0.185-1.935,0.01-2.608c0.466-1.619,3.073-3.973,4.373-5.138c-0.044-0.019-0.088-0.038-0.13-0.056
		c-0.882-0.376-2.717-1.16-4.466-3.822c-0.331-0.504-0.621-1.262-0.928-2.063c-0.49-1.282-1.101-2.876-1.889-3.25
		c-0.038-0.018-0.111-0.039-0.249-0.039c-0.359,0-0.867,0.143-1.357,0.28c-0.519,0.146-1.009,0.283-1.412,0.283
		c-2.363-0.138-6.672-1.569-8.634-2.306c-0.349-0.131-0.757-0.392-1.188-0.668C16.107,10.109,15.384,9.647,14.969,9.647z"/>
</g>
<path opacity="0" d="M31.119,21.751c-0.107-0.626-1.303-2.191-0.682-2.454c0.465-0.196,0.948,1.134,1.16,1.565
	c0.523,1.064,1.52,0.847,1.539,1.187c0.015,0.247-0.688,0.122-1.22,0.813c-0.175,0.227-0.367,1.003-0.659,0.933
	C30.727,23.665,31.206,22.258,31.119,21.751z M28.002,15.658c0.027-0.108,0.328-0.239,0.436-0.19
	c0.223,0.101,0.436,0.79,0.216,0.892C28.43,16.463,27.95,15.884,28.002,15.658z"/>
<g opacity="0.8">
	<path d="M45.262,43.577c-0.11,0-0.208-0.047-0.275-0.131c-0.166-0.207-0.097-0.555,0.063-1.259c0.068-0.3,0.146-0.64,0.188-0.954
		c0.128-0.923,0.569-1.596,0.891-2.087c0.148-0.227,0.277-0.423,0.329-0.573c0.151-0.44,0.508-0.786,0.812-0.786
		c0.214,0,0.363,0.159,0.363,0.388c0,0.224-0.165,0.821-0.397,1.642c-0.088,0.309-0.164,0.576-0.192,0.704
		c-0.006,0.029-0.688,2.941-1.738,3.055L45.262,43.577z M47.085,38.45c-0.057,0.072-0.113,0.167-0.154,0.285
		c-0.072,0.21-0.217,0.431-0.383,0.685c-0.313,0.478-0.702,1.071-0.813,1.882c-0.047,0.336-0.127,0.687-0.197,0.997
		c-0.053,0.232-0.12,0.528-0.141,0.714c0.417-0.312,0.955-1.67,1.158-2.6c0.029-0.133,0.108-0.412,0.199-0.733
		C46.856,39.319,47.009,38.784,47.085,38.45z"/>
</g>
</svg>
