<svg width="50" height="50" viewBox="0 0 50 50" fill="none" xmlns="http://www.w3.org/2000/svg">
<path fill-rule="evenodd" clip-rule="evenodd" d="M49.9481 17.2053C49.9674 17.228 49.9851 17.2487 50 17.2625C49.9916 17.4089 49.9868 17.6002 49.9816 17.8091C49.9695 18.2909 49.9551 18.866 49.8886 19.1985C49.7671 19.8059 49.3944 21.0113 49.0668 21.5492C48.7345 22.0949 47.9475 22.8619 47.2754 23.5169C46.9599 23.8244 46.6697 24.1072 46.4637 24.3309C46.0762 24.7517 45.5014 25.2645 44.8725 25.8255C43.3693 27.1665 41.5574 28.7829 41.2576 30.0768C41.1551 30.5193 41.4551 31.2051 41.7357 31.8464L41.7357 31.8464C41.9257 32.2807 42.1068 32.6947 42.1479 32.9988C42.2219 33.5474 42.1423 34.6593 42.0857 35.2097C42.0739 35.3244 42.0651 35.4668 42.0554 35.6242C42.0187 36.2155 41.9688 37.0196 41.6996 37.3731C41.5492 37.5707 41.147 37.731 40.7875 37.8743C40.5862 37.9546 40.3982 38.0295 40.2753 38.1027C40.2163 38.1379 40.1487 38.1774 40.0751 38.2205C39.5919 38.5032 38.8504 38.9371 38.5668 39.2743C38.2455 39.6564 37.8633 40.5898 37.7705 41.0669C37.7413 41.2166 37.7724 41.4412 37.8043 41.6714C37.8426 41.948 37.882 42.2328 37.8196 42.4062C37.7408 42.625 37.4402 42.9183 37.1957 43.157L37.1955 43.1571C37.1008 43.2495 37.0145 43.3338 36.9528 43.4023C36.8405 43.5268 36.676 43.6992 36.5036 43.8799L36.5033 43.8802L36.5032 43.8803L36.5026 43.881C36.2622 44.1328 36.0064 44.4008 35.855 44.5782C35.5919 44.8864 35.2019 45.3985 34.8393 45.8744C34.5922 46.1989 34.3578 46.5066 34.1851 46.7215C34.1212 46.801 34.0434 46.9045 33.9579 47.0181C33.7211 47.3329 33.4253 47.726 33.2028 47.9072C33.0001 48.0722 32.5163 48.3077 32.2697 48.4088C31.6748 48.6526 30.6385 48.931 29.7306 49.175C29.2553 49.3026 28.8152 49.4209 28.492 49.5198C28.3754 49.5554 28.2241 49.6219 28.0595 49.6943L28.0592 49.6944L28.0591 49.6944C27.6971 49.8536 27.2705 50.0412 27.0059 49.992C26.4298 49.885 25.1457 49.083 25.2463 48.5456C25.2521 48.5145 25.3099 48.5062 25.3683 48.4978C25.4235 48.4898 25.4792 48.4818 25.4918 48.4544C25.7204 47.9591 25.1599 47.0834 24.7137 46.3864C24.5498 46.1303 24.4014 45.8984 24.3131 45.7182C24.2284 45.5454 24.088 45.3138 23.9392 45.0684L23.9392 45.0683C23.7102 44.6905 23.4614 44.28 23.3658 44.0014C23.2703 43.7232 23.2327 43.29 23.1945 42.8501C23.1523 42.3643 23.1094 41.8703 22.987 41.5684C22.885 41.3167 22.6202 40.9929 22.3545 40.668C22.0831 40.336 21.8106 40.0029 21.71 39.7444C21.3529 38.8267 21.0377 36.8293 21.2189 35.8682C21.2716 35.5886 21.5208 35.2246 21.7722 34.8574L21.7723 34.8574C22.0402 34.466 22.3107 34.0709 22.3485 33.7705C22.3722 33.5824 22.2623 33.3103 22.151 33.0349C22.0283 32.7311 21.9039 32.4233 21.9556 32.22C21.9663 32.1781 22.0212 32.1334 22.0764 32.0884C22.1354 32.0403 22.1948 31.992 22.2012 31.9464C22.2832 31.362 21.6266 30.4056 21.1616 29.7282C21.0511 29.5673 20.9515 29.4222 20.8751 29.3015C20.7084 29.0381 20.3943 28.7147 20.0602 28.3708C19.5014 27.7956 18.8867 27.1628 18.8123 26.6565C18.7859 26.477 18.9293 26.2126 19.0637 25.9648L19.0638 25.9648C19.1558 25.7951 19.2437 25.6332 19.2699 25.5115C19.2981 25.3808 19.2992 25.1566 19.3001 24.9641V24.9641V24.964V24.9639C19.3005 24.8714 19.3009 24.7862 19.3043 24.7222C19.3107 24.5998 19.3412 24.4355 19.3744 24.2565L19.3744 24.2564C19.4484 23.8582 19.5358 23.3874 19.4016 23.1452C19.2754 22.9173 18.7381 22.6524 18.4684 22.5979C18.3027 22.5645 18.0511 22.6266 17.7969 22.6892C17.5219 22.7571 17.244 22.8256 17.0689 22.7746C16.8625 22.7145 16.6471 22.4727 16.4317 22.2309C16.2164 21.9893 16.0012 21.7478 15.795 21.6875C15.1027 21.4852 13.8535 21.758 12.8345 21.9805L12.8344 21.9805C12.4346 22.0678 12.0703 22.1474 11.7888 22.1875C11.6474 22.2077 11.4568 22.2437 11.2518 22.2825L11.2518 22.2825C10.881 22.3527 10.4633 22.4318 10.2048 22.4416C10.0009 22.4493 9.67631 22.4128 9.37575 22.379C9.17472 22.3564 8.98442 22.335 8.84811 22.3288C8.56973 22.3162 8.18797 22.3407 7.77697 22.3671H7.77694H7.77693C7.0094 22.4163 6.13993 22.4721 5.65144 22.3053C5.37178 22.2098 5.02423 21.8933 4.70549 21.603L4.70546 21.603C4.50447 21.4199 4.31494 21.2473 4.16111 21.1472C4.05722 21.0795 3.8959 21.0063 3.72527 20.9288L3.72525 20.9288C3.46254 20.8095 3.17775 20.6802 3.04651 20.5458C2.85261 20.3474 2.68821 19.9388 2.53719 19.5636C2.44097 19.3245 2.35019 19.0989 2.26067 18.9498C2.23295 18.9036 2.20114 18.8442 2.16588 18.7784C2.03662 18.5372 1.86107 18.2096 1.6713 18.1289C1.62593 18.1096 1.54964 18.1305 1.47345 18.1514L1.47344 18.1514C1.39844 18.1719 1.32355 18.1924 1.27838 18.1745C1.05604 18.0866 0.833445 17.7276 0.662763 17.4524C0.609073 17.3658 0.56052 17.2875 0.518728 17.2286C0.487505 17.1845 0.446473 17.1312 0.401132 17.0723C0.239851 16.8628 0.0240617 16.5824 0.00140459 16.396C-0.0107849 16.2957 0.0586789 16.1383 0.120048 15.9992C0.152889 15.9248 0.183412 15.8556 0.197863 15.8032C0.409399 15.0365 0.758947 13.485 0.885466 12.7023C0.937086 12.3828 1.00879 11.7388 1.01734 11.4159C1.02152 11.2579 0.992461 11.0381 0.96151 10.804C0.910233 10.4162 0.853754 9.98898 0.934581 9.73813C1.17146 9.00271 2.30478 7.8077 2.87485 7.25186C3.19594 6.93887 3.78803 6.52714 4.34288 6.14131C4.73511 5.86856 5.10872 5.60876 5.35484 5.40593C5.68626 5.13277 6.32161 4.55732 6.61993 4.25301C6.87268 3.99519 7.21245 3.58886 7.55788 3.17576L7.55788 3.17576L7.5579 3.17574L7.5579 3.17573C7.94124 2.7173 8.33153 2.25055 8.61757 1.96921C8.70187 1.88629 8.80242 1.77706 8.91381 1.65605L8.91382 1.65604C9.30852 1.22726 9.83936 0.65059 10.2663 0.572098C10.5711 0.516057 11.0097 0.731613 11.4392 0.942697C11.8045 1.12221 12.1631 1.29848 12.4273 1.30173C12.9467 1.30813 13.712 1.00529 14.4335 0.719798C14.9507 0.515137 15.4454 0.319393 15.8108 0.252883C16.3312 0.158167 17.3975 0.109099 17.9275 0.125197C18.0653 0.129379 18.2565 0.16988 18.4593 0.212833C18.7849 0.281808 19.1403 0.357106 19.3525 0.298485C19.4059 0.283747 19.4634 0.223519 19.5211 0.163063C19.5807 0.100623 19.6406 0.0379395 19.6963 0.0248722C19.9765 -0.0407949 20.683 0.0196736 20.826 0.252883C20.8783 0.338193 20.7931 0.480472 20.7089 0.621227C20.6385 0.738922 20.5687 0.855551 20.5804 0.936915C20.5916 1.01427 20.6822 1.10446 20.7735 1.19544C20.8747 1.29614 20.9768 1.39782 20.9733 1.48414C20.9669 1.64211 20.7462 1.81404 20.5262 1.98547C20.2828 2.17511 20.0403 2.36414 20.0892 2.53299C20.184 2.85966 20.918 2.99778 21.444 3.09677C21.5862 3.12353 21.7132 3.14743 21.8083 3.17142C21.9737 3.21317 22.2195 3.23116 22.4767 3.24997C22.8344 3.27614 23.214 3.3039 23.429 3.39943C23.6146 3.48184 23.8279 3.69879 24.0393 3.91382C24.2388 4.11668 24.4366 4.31783 24.6078 4.40268C25.0202 4.60707 26.0118 5.01617 26.425 4.8131C26.6122 4.72113 26.6686 4.4008 26.7249 4.08055C26.7802 3.76624 26.8354 3.452 27.0144 3.35383C27.3682 3.15979 28.0749 3.35009 28.673 3.51114C28.9419 3.58354 29.1888 3.65004 29.3719 3.67304C29.5473 3.69509 29.7671 3.72584 30.0087 3.75965L30.009 3.75969L30.009 3.75969C30.7205 3.85924 31.622 3.98539 32.143 3.99468C32.4059 3.99937 32.8247 3.95598 33.2117 3.91589C33.4683 3.88931 33.711 3.86418 33.885 3.85545C34.0392 3.84771 34.2469 3.81483 34.4754 3.77865C35.0663 3.68509 35.7962 3.56952 36.1006 3.80985C36.5728 4.18274 36.9957 5.8267 36.4444 6.08996C36.2937 6.16189 36.1152 5.89713 35.9408 5.63847C35.7664 5.37997 35.5962 5.12758 35.4621 5.22352C35.0459 5.52129 35.7786 6.33631 36.3478 6.96937C36.5525 7.19703 36.736 7.40115 36.8373 7.54923C36.9815 7.76001 37.2367 8.0743 37.4779 8.37136L37.4781 8.37158L37.4781 8.37169C37.6561 8.5909 37.8265 8.80069 37.9389 8.95254C37.9683 8.99213 37.9967 9.03112 38.0253 9.07032C38.2135 9.32815 38.4085 9.59529 38.9001 10.1029C39.1515 10.3626 39.2956 10.999 39.4285 11.586C39.511 11.9503 39.5891 12.2955 39.6859 12.5199C39.9659 13.1685 40.801 14.3734 41.3558 14.8456C41.484 14.9547 41.7253 15.0559 41.9659 15.1569C42.2018 15.2559 42.437 15.3547 42.5642 15.4602C42.6312 15.5158 42.706 15.6278 42.7771 15.7343L42.7772 15.7344L42.7772 15.7345C42.8311 15.815 42.8828 15.8925 42.9275 15.94C43.0404 16.0601 43.2446 16.1934 43.462 16.3354C43.8388 16.5813 44.2549 16.853 44.3027 17.1257C44.3148 17.1943 44.2343 17.2827 44.1539 17.3711C44.0691 17.4642 43.9844 17.5574 44.008 17.6273C44.1313 17.9922 45.0708 18.2822 45.4815 18.3113C45.7285 18.3289 46.1217 18.1759 46.4556 18.0461C46.6082 17.9867 46.7485 17.9321 46.8567 17.9009C47.0726 17.8386 47.3517 17.727 47.6571 17.6048L47.6572 17.6048C48.391 17.3112 49.2769 16.9568 49.8035 17.0801C49.8505 17.0911 49.9036 17.1532 49.9481 17.2053L49.9481 17.2053ZM48.7789 36.2463V36.2464C48.7883 36.4451 48.7969 36.6275 48.8246 36.7561C48.8356 36.807 48.8635 36.8757 48.8939 36.9506C48.9624 37.1191 49.0436 37.3188 48.9724 37.4164C48.9396 37.4614 48.8409 37.4643 48.7428 37.4671C48.6554 37.4697 48.5685 37.4722 48.529 37.5045C48.0558 37.8912 47.845 38.8413 47.6562 39.6924C47.5502 40.1702 47.4511 40.6169 47.3164 40.9152C47.2434 41.0769 47.1613 41.2773 47.0705 41.4989L47.0705 41.4989C46.7041 42.3935 46.1963 43.6334 45.5728 44.0636C45.2842 44.2628 44.4443 44.5127 44.144 44.3277C43.3853 43.8603 43.4645 41.8948 43.5592 41.0757C43.5839 40.8622 43.7418 40.5612 43.8962 40.2668C44.0311 40.0097 44.1634 39.7576 44.2019 39.5733C44.2317 39.4302 44.2072 39.2172 44.1816 38.9957C44.1467 38.6927 44.1099 38.3736 44.2078 38.1948C44.4715 37.7132 45.298 37.2494 46.0725 36.8147C46.6046 36.516 47.1122 36.2311 47.3958 35.9637C47.4792 35.8851 47.5642 35.7469 47.6533 35.6018C47.7852 35.3871 47.9264 35.1574 48.0856 35.0833C48.173 35.0427 48.404 35.027 48.4797 35.0833C48.7328 35.2716 48.7578 35.8002 48.7789 36.2463ZM11.9434 8.79726C12.726 8.79726 13.3604 8.20433 13.3604 7.4729C13.3604 6.74148 12.726 6.14854 11.9434 6.14854C11.1608 6.14854 10.5263 6.74148 10.5263 7.4729C10.5263 8.20433 11.1608 8.79726 11.9434 8.79726ZM13.991 9.32573L16.4373 17.4083L18.6073 15.3802L33.3121 29.123L35.1089 27.4437L20.4042 13.7009L22.5585 11.6875L13.991 9.32573ZM36.9434 32.1617C37.726 32.1617 38.3604 31.5688 38.3604 30.8374C38.3604 30.106 37.726 29.513 36.9434 29.513C36.1608 29.513 35.5263 30.106 35.5263 30.8374C35.5263 31.5688 36.1608 32.1617 36.9434 32.1617Z" fill="black"/>
</svg>
