<svg width="50" height="50" viewBox="0 0 50 50" fill="none" xmlns="http://www.w3.org/2000/svg">
<path fill-rule="evenodd" clip-rule="evenodd" d="M26 11.2916C25.3812 10.9344 24.6188 10.9344 24 11.2916L13.6282 17.2798C13.0094 17.6371 12.6282 18.2973 12.6282 19.0118V30.9882C12.6282 31.7027 13.0094 32.3629 13.6282 32.7202L24 38.7084C24.6188 39.0656 25.3812 39.0656 26 38.7084L36.3718 32.7202C36.9906 32.3629 37.3718 31.7027 37.3718 30.9882V19.0118C37.3718 18.2973 36.9906 17.6371 36.3718 17.2798L26 11.2916ZM30.1549 22.0238L25 19.0476L19.8451 22.0238V27.9762L25 30.9524L30.1549 27.9762V22.0238Z" fill="#0A0000"/>
<path opacity="0.5" d="M25.25 1.87639L44.9006 13.2217C45.0553 13.311 45.1506 13.4761 45.1506 13.6547V36.3453C45.1506 36.5239 45.0553 36.689 44.9006 36.7783L25.25 48.1236C25.0953 48.2129 24.9047 48.2129 24.75 48.1236L5.09937 36.7783C4.94466 36.689 4.84937 36.5239 4.84937 36.3453V13.6547C4.84937 13.4761 4.94467 13.311 5.09937 13.2217L24.75 1.87639C24.9047 1.78707 25.0953 1.78707 25.25 1.87639Z" stroke="#0A0000" stroke-width="3"/>
</svg>
